<?xml version="1.0" standalone="no"?>
<!DOCTYPE svg PUBLIC "-//W3C//DTD SVG 20010904//EN"
 "http://www.w3.org/TR/2001/REC-SVG-20010904/DTD/svg10.dtd">
<svg version="1.0" xmlns="http://www.w3.org/2000/svg"
 width="206.000000pt" height="206.000000pt" viewBox="0 0 206.000000 206.000000"
 preserveAspectRatio="xMidYMid meet">
<metadata>
Created by potrace 1.11, written by Peter Selinger 2001-2013
</metadata>
<g transform="translate(0.000000,206.000000) scale(0.100000,-0.100000)"
fill="#000000" stroke="none">
<path d="M863 2025 c-389 -70 -700 -359 -799 -741 -54 -210 -33 -492 51 -653
8 -17 13 -31 10 -31 -3 0 18 -37 46 -82 76 -124 139 -197 234 -273 28 -22 52
-43 53 -47 2 -5 9 -8 15 -8 6 0 18 -6 26 -14 24 -21 132 -74 198 -97 206 -71
439 -74 643 -8 230 75 443 252 563 469 54 98 83 182 113 325 3 17 7 83 9 148
4 179 -29 323 -111 484 -25 48 -48 90 -52 93 -4 3 -19 23 -33 45 -27 40 -124
140 -189 193 -89 73 -228 144 -340 173 -138 36 -317 46 -437 24z"/>
</g>
</svg>
